<?xml version="1.0" encoding="UTF-8"?>
<svg width="169px" height="130px" viewBox="0 0 169 130" version="1.1" xmlns="http://www.w3.org/2000/svg" xmlns:xlink="http://www.w3.org/1999/xlink">
    <!-- Generator: Sketch 48.1 (47250) - http://www.bohemiancoding.com/sketch -->
    <title>Illustration/2</title>
    <desc>Created with Sketch.</desc>
    <defs></defs>
    <g id="Symbols" stroke="none" stroke-width="1" fill="none" fill-rule="evenodd">
        <g id="Illustration/2">
            <g id="Phone-Illustration" transform="translate(4.000000, 8.000000)">
                <path d="M143.860031,36.2857143 L143.860031,36.3030879 C147.800489,36.5688042 150.914463,39.8493197 150.914463,43.8571429 C150.914463,47.8649661 147.800489,51.1454815 143.860031,51.4111978 L143.860031,51.4285714 L153.672739,51.4285714 C157.854324,51.4285714 161.244168,54.8184155 161.244168,59 C161.244168,63.1815845 157.854324,66.5714286 153.672739,66.5714286 L143.860031,66.5714286 L141.605643,66.5714286 C137.424059,66.5714286 134.034215,69.9612726 134.034215,74.1428571 C134.034215,78.3244417 137.424059,81.7142857 141.605643,81.7142857 L143.860031,81.7142857 L154.428571,81.7142857 C158.610156,81.7142857 162,85.1041298 162,89.2857143 C162,93.4672988 158.610156,96.8571429 154.428571,96.8571429 L143.860031,96.8571429 L134.27305,96.8571429 C138.454635,96.8571429 141.844479,100.246987 141.844479,104.428571 C141.844479,108.610156 138.454635,112 134.27305,112 L18.9089091,112 C14.7273246,112 11.3374806,108.610156 11.3374806,104.428571 C11.3374806,100.246987 14.7273246,96.8571429 18.9089091,96.8571429 L28.4696734,96.8571429 L29.7162853,96.8571429 C33.8978698,96.8571429 37.2877138,93.4672988 37.2877138,89.2857143 C37.2877138,85.1041298 33.8978698,81.7142857 29.7162853,81.7142857 L28.4696734,81.7142857 L7.57142857,81.7142857 C3.38984404,81.7142857 5.12096412e-16,78.3244417 0,74.1428571 C-5.12096412e-16,69.9612726 3.38984404,66.5714286 7.57142857,66.5714286 L13.9960009,66.5714286 C9.81441635,66.5714286 6.42457232,63.1815845 6.42457232,59 C6.42457232,54.8184155 9.81441635,51.4285714 13.9960009,51.4285714 L28.4696734,51.4285714 L40.4239058,51.4285714 C44.6054903,51.4285714 47.9953344,48.0387274 47.9953344,43.8571429 C47.9953344,39.6755583 44.6054903,36.2857143 40.4239058,36.2857143 L28.4696734,36.2857143 L22.1841813,36.2857143 C18.0025968,36.2857143 14.6127527,32.8958702 14.6127527,28.7142857 C14.6127527,24.5327012 18.0025968,21.1428571 22.1841813,21.1428571 L12.4213508,21.1428571 C8.23976628,21.1428571 4.84992224,17.7530131 4.84992224,13.5714286 C4.84992224,9.38984404 8.23976628,6 12.4213508,6 L144.854699,6 C149.036283,6 152.426128,9.38984404 152.426128,13.5714286 C152.426128,17.7530131 149.036283,21.1428571 144.854699,21.1428571 L143.860031,21.1428571 L137.952455,21.1428571 C133.77087,21.1428571 130.381026,24.5327012 130.381026,28.7142857 C130.381026,32.8958702 133.77087,36.2857143 137.952455,36.2857143 L143.860031,36.2857143 Z" id="Combined-Shape" fill="#F6F9FC" opacity="0.835389459"></path>
                <g id="Lines" transform="translate(64.000000, 22.000000)" stroke="#EF8FB0" stroke-linecap="round" stroke-width="1.8">
                    <path d="M7.05882353,10 L3.73718999,7.36024651 M1.84979228,5.8603024 L0,4.3902439" id="Line" opacity="0.642723881"></path>
                    <path d="M10.8403361,2.68292683 L11.5966387,5.36585366" id="Line" opacity="0.561159049"></path>
                    <path d="M20.1680672,0 L19.4117647,8.04878049" id="Line" opacity="0.847306437"></path>
                    <path d="M30,5.12195122 L26.7226891,9.02439024" id="Line" opacity="0.681669776"></path>
                </g>
                <g id="Illustration-Phone-2" transform="translate(108.500000, 68.500000) scale(-1, 1) rotate(-360.000000) translate(-108.500000, -68.500000) translate(80.000000, 40.000000)">
                    <path d="M54.3897747,17.578809 C54.3897747,17.578809 55.3248998,12.739511 53.6762091,10.3229581 C52.0275184,7.90640523 43.3683653,4.19570844 43.3683653,4.19570844" id="Path-5" stroke="#6E7585" stroke-width="2.592" stroke-linecap="round" stroke-linejoin="round" transform="translate(49.011143, 10.887259) rotate(76.000000) translate(-49.011143, -10.887259) "></path>
                    <path d="M17.4419374,1.58556897 L28.8861533,-1.36424205e-11 L40.3303692,1.58556897 C42.4667476,1.88155913 44.0575066,3.70790904 44.0575066,5.86469434 L44.0575066,51.2819535 C44.0575066,53.4949612 42.385153,55.3500945 40.1839969,55.5788182 L28.8861533,56.7527853 L17.5883097,55.5788182 C15.3871536,55.3500945 13.7148001,53.4949612 13.7148001,51.2819535 L13.7148001,5.86469434 C13.7148001,3.70790904 15.305559,1.88155913 17.4419374,1.58556897 Z" id="Rectangle-9" fill="#F6F9FC"></path>
                    <path d="M36.1572527,0.453858901 C39.326276,0.864862735 41.1183871,1.391684 41.1183871,1.391684 C42.741618,1.78395585 44.0575066,3.45047525 44.0575066,5.11715113 L44.0575066,52.1611229 C44.0575066,53.8263698 42.7244035,55.427858 41.0789952,55.7034512 C41.0789952,55.7034512 36.4718299,56.7527853 28.8861533,56.7527853 C21.3004767,56.7527853 16.6933114,55.7034512 16.6933114,55.7034512 C15.048325,55.4123242 13.7148001,53.8258168 13.7148001,52.1634231 L13.7148001,41.9169728 L13.7148001,41.9169728 M13.7148001,37.7628091 L13.7148001,34.5303809 M13.7148001,31.7935817 L13.7148001,5.11578893 C13.7148001,3.45129442 15.0283273,1.77121226 16.6586655,1.40641283 C16.6586655,1.40641283 21.3004767,-1.36405007e-11 28.8861533,-1.36424205e-11 C30.0873336,-1.36426622e-11 31.2146987,0.035264731 32.261507,0.0946259604" id="Rectangle-9" stroke="#7C8495" stroke-width="1.728" stroke-linecap="round" stroke-linejoin="round"></path>
                    <path d="M32.3068317,47.9819003 L17.7764352,47.9819003 C17.108777,47.9819003 16.5675331,47.4420676 16.5675331,46.7762556 L16.5675331,7.39685763 L16.5675331,7.39685763 C16.5675331,6.73099846 17.1108303,6.19121294 17.7767021,6.19121294 L39.9956045,6.19121294 C40.6634101,6.19121294 41.2047735,6.73104561 41.2047735,7.39685763 L41.2047735,46.7762556 C41.2047735,47.4421148 40.6632777,47.9819003 39.9917765,47.9819003 L36.6783553,47.9819003" id="Rectangle-9" stroke="#7C8495" stroke-width="1.728" fill="#FFFFFF" stroke-linecap="round" stroke-linejoin="round"></path>
                    <g id="Logo" transform="translate(19.000000, 27.000000)" fill="#EF8FB0">
                        <path d="M11.1724331,9.56293001 C11.9944062,10.1180352 12.9545344,10.411739 13.9494498,10.411739 C16.6877035,10.411739 18.9155785,8.18386395 18.9155785,5.44511329 C18.9155785,2.7068596 16.6877035,0.478984584 13.9494498,0.478984584 C12.9053352,0.478984584 11.9059472,0.800021224 11.059623,1.40631333 C10.3777929,1.89482574 9.8271604,2.55180785 9.45891249,3.32259396 L8.67371451,5.0475447 L7.89597095,6.75609573 C7.67482342,7.21926315 7.33639315,7.62229831 6.91745525,7.92295956 C6.39962215,8.29418924 5.78686956,8.49048873 5.14628716,8.49048873 C3.46705681,8.49048873 2.10091172,7.12434365 2.10091172,5.44511329 C2.10091172,3.76588294 3.46705681,2.39973786 5.14628716,2.39973786 C5.75655495,2.39973786 6.34545343,2.57963765 6.84788074,2.91906183 L7.92330379,1.32779353 C7.10182768,0.772688384 6.14120257,0.478984584 5.14628716,0.478984584 C2.4075365,0.478984584 0.180158448,2.7068596 0.180158448,5.44511329 C0.180158448,8.18386395 2.4075365,10.411739 5.14628716,10.411739 C6.19089864,10.411739 7.1902867,10.0907023 8.03661084,9.48391326 C8.71844098,8.99540084 9.26907349,8.33841874 9.63682444,7.56812959 L10.4220224,5.84317885 L11.199766,4.13462781 C11.4209135,3.6714604 11.7593438,3.26792828 12.1777847,2.96776399 C12.6966117,2.59603735 13.3088674,2.39973786 13.9494498,2.39973786 C15.6286801,2.39973786 16.9948252,3.76588294 16.9948252,5.44511329 C16.9948252,7.12434365 15.6286801,8.49048873 13.9494498,8.49048873 C13.339182,8.49048873 12.7502835,8.31058894 12.2473592,7.97116475 L11.1724331,9.56293001 Z" id="Fill-1"></path>
                        <path d="M6.32925251,4.5930741 C6.04399704,4.30781863 5.63897404,4.32272745 5.28414407,4.67706046 C4.92981106,4.32272745 4.52478805,4.30781863 4.23953259,4.5930741 C3.95427712,4.87832957 3.96620418,5.29975228 4.23953259,5.57357765 C4.51335795,5.84690605 4.78817725,6.12172535 5.00087644,6.33442454 C5.21357564,6.5476207 5.28414407,6.4894763 5.28414407,6.4894763 C5.28414407,6.4894763 5.35520945,6.5476207 5.56790865,6.33442454 C5.78060785,6.12172535 6.05542714,5.84690605 6.32925251,5.57357765 C6.60307788,5.29975228 6.61450798,4.87832957 6.32925251,4.5930741" id="Fill-3"></path>
                        <path d="M13.0787248,4.5930741 C13.3639803,4.30781863 13.7690033,4.32272745 14.1233363,4.67706046 C14.4776693,4.32272745 14.8826923,4.30781863 15.1684448,4.5930741 C15.4532033,4.87832957 15.4417732,5.29975228 15.1684448,5.57357765 C14.8946194,5.84690605 14.6198001,6.12172535 14.4071009,6.33442454 C14.1944017,6.5476207 14.1233363,6.4894763 14.1233363,6.4894763 C14.1233363,6.4894763 14.0522709,6.5476207 13.8395717,6.33442454 C13.6273695,6.12172535 13.3520533,5.84690605 13.0787248,5.57357765 C12.8048995,5.29975228 12.7934694,4.87832957 13.0787248,4.5930741" id="Fill-5"></path>
                    </g>
                    <path d="M23.6400111,14.8407959 C23.6400111,14.8407959 23.7470542,13.7537815 24.6198062,13.5719864 C25.4925582,13.3901913 25.9740655,14.4470237 25.9740655,14.4470237" id="Path-8" stroke="#7C8495" stroke-width="1.728" stroke-linecap="round" stroke-linejoin="round" transform="translate(24.807038, 14.195878) rotate(7.000000) translate(-24.807038, -14.195878) "></path>
                    <path d="M31.6795317,14.8407959 C31.6795317,14.8407959 31.7865748,13.7537815 32.6593267,13.5719864 C33.5320787,13.3901913 34.013586,14.4470237 34.013586,14.4470237" id="Path-8" stroke="#7C8495" stroke-width="1.728" stroke-linecap="round" stroke-linejoin="round" transform="translate(32.846559, 14.195878) rotate(7.000000) translate(-32.846559, -14.195878) "></path>
                    <path d="M25.6429458,2.77155707 C26.724015,2.64363373 27.8050841,2.57967206 28.8861533,2.57967206 C29.9672225,2.57967206 31.0482916,2.64363373 32.1293608,2.77155707 L32.1293616,2.77155061 C32.4243477,2.80645644 32.6465742,3.05652947 32.6465742,3.35357368 L32.6465742,3.35357368 C32.6465742,3.60440035 32.443239,3.80773555 32.1924123,3.80773555 C32.1745244,3.80773555 32.1566521,3.80667874 32.1388889,3.80457063 C31.0546449,3.675879 29.9703991,3.61154088 28.8861533,3.61154088 C27.8019075,3.61154088 26.7176617,3.675879 25.6334159,3.80455523 L25.6334178,3.80457063 C25.384339,3.83413082 25.1584575,3.65617587 25.1288973,3.40709714 C25.1267892,3.38933388 25.1257324,3.37146159 25.1257324,3.35357368 L25.1257324,3.35357368 C25.1257324,3.05652947 25.3479589,2.80645644 25.6429451,2.77155061 Z" id="Rectangle-10" fill="#E1EBF7"></path>
                    <path d="M4.85893951,34.6857992 C4.85893951,34.6857992 8.68272341,32.1402722 8.68272341,27.6962699 C8.68272341,23.2522675 5.67126758,15.8159999 5.67126758,15.8159999" id="Path-5" stroke="#6E7585" stroke-width="2.592" stroke-linecap="round" stroke-linejoin="round" transform="translate(6.770831, 25.250900) rotate(-148.000000) translate(-6.770831, -25.250900) "></path>
                    <ellipse id="Oval" fill="#E1EBF7" cx="29.015823" cy="52.3673428" rx="2.33405435" ry="2.32170485"></ellipse>
                    <path d="M26.0048377,21.1078057 C25.6760846,21.8207926 26.6966634,22.3701428 27.9743297,22.2221663 C29.2519961,22.0741898 30.1990126,20.8874455 29.887012,20.3571429 C29.5750114,19.8268403 26.3335907,20.3948189 26.0048377,21.1078057 Z" id="Path-10" fill="#7C8495" transform="translate(27.944764, 21.197693) rotate(17.000000) translate(-27.944764, -21.197693) "></path>
                </g>
                <g id="Illustration-Phone-1" transform="translate(52.500000, 68.500000) rotate(-360.000000) translate(-52.500000, -68.500000) translate(24.000000, 40.000000)">
                    <path d="M54.3897747,17.578809 C54.3897747,17.578809 55.3248998,12.739511 53.6762091,10.3229581 C52.0275184,7.90640523 43.3683653,4.19570844 43.3683653,4.19570844" id="Path-5" stroke="#6E7585" stroke-width="2.592" stroke-linecap="round" stroke-linejoin="round" transform="translate(49.011143, 10.887259) rotate(76.000000) translate(-49.011143, -10.887259) "></path>
                    <path d="M17.4419374,1.58556897 L28.8861533,-7.95807864e-13 L40.3303692,1.58556897 C42.4667476,1.88155913 44.0575066,3.70790904 44.0575066,5.86469434 L44.0575066,51.2819535 C44.0575066,53.4949612 42.385153,55.3500945 40.1839969,55.5788182 L28.8861533,56.7527853 L17.5883097,55.5788182 C15.3871536,55.3500945 13.7148001,53.4949612 13.7148001,51.2819535 L13.7148001,5.86469434 C13.7148001,3.70790904 15.305559,1.88155913 17.4419374,1.58556897 Z" id="Rectangle-9" fill="#F6F9FC"></path>
                    <path d="M44.0575066,39.6653867 L44.0575066,52.1626598 C44.0575066,53.8270579 42.7244035,55.427858 41.0789952,55.7034512 C41.0789952,55.7034512 36.4718299,56.7527853 28.8861533,56.7527853 C28.0157269,56.7527853 27.1845174,56.7389691 26.3949857,56.7145074 M23.1667314,56.5458822 C19.0496935,56.2401439 16.6879724,55.7118735 16.6879724,55.7118735 C15.0459347,55.4160949 13.7148001,53.8277886 13.7148001,52.1634673 L13.7148001,36.5369037 L13.7148001,43.6662713 M13.7148001,37.271308 L13.7148001,33.9354798 M13.7148001,30.1995011 L13.7148001,5.11554974 C13.7148001,3.45118733 15.0283273,1.77121226 16.6586655,1.40641283 C16.6586655,1.40641283 21.3004767,-7.93888081e-13 28.8861533,-7.95807864e-13 C36.4718299,-7.97333845e-13 41.1136412,1.40641283 41.1136412,1.40641283 C42.7394931,1.79055017 44.0575066,3.45163131 44.0575066,5.11633816 L44.0575066,35.7358468" id="Rectangle-9" stroke="#7C8495" stroke-width="1.728" stroke-linecap="round" stroke-linejoin="round"></path>
                    <path d="M24.2630128,6.19121294 L39.9931628,6.19121294 C40.6623169,6.19121294 41.2047735,6.73104561 41.2047735,7.39685763 L41.2047735,46.7762556 C41.2047735,47.4421148 40.6614763,47.9819003 39.9956045,47.9819003 L17.7767021,47.9819003 C17.1088965,47.9819003 16.5675331,47.4420676 16.5675331,46.7762556 L16.5675331,7.39685763 L16.5675331,7.39685763 C16.5675331,6.73099846 17.1090508,6.19121294 17.7760949,6.19121294 L20.9479428,6.19121294" id="Rectangle-9" stroke="#7C8495" stroke-width="1.728" fill="#FFFFFF" stroke-linecap="round" stroke-linejoin="round"></path>
                    <path d="M23.6400111,14.8407959 C23.6400111,14.8407959 23.7470542,13.7537815 24.6198062,13.5719864 C25.4925582,13.3901913 25.9740655,14.4470237 25.9740655,14.4470237" id="Path-8" stroke="#7C8495" stroke-width="1.728" stroke-linecap="round" stroke-linejoin="round" transform="translate(24.807038, 14.195878) rotate(7.000000) translate(-24.807038, -14.195878) "></path>
                    <path d="M31.6795317,14.8407959 C31.6795317,14.8407959 31.7865748,13.7537815 32.6593267,13.5719864 C33.5320787,13.3901913 34.013586,14.4470237 34.013586,14.4470237" id="Path-8" stroke="#7C8495" stroke-width="1.728" stroke-linecap="round" stroke-linejoin="round" transform="translate(32.846559, 14.195878) rotate(7.000000) translate(-32.846559, -14.195878) "></path>
                    <path d="M25.6429458,2.77155707 C26.724015,2.64363373 27.8050841,2.57967206 28.8861533,2.57967206 C29.9672225,2.57967206 31.0482916,2.64363373 32.1293608,2.77155707 L32.1293616,2.77155061 C32.4243477,2.80645644 32.6465742,3.05652947 32.6465742,3.35357368 L32.6465742,3.35357368 C32.6465742,3.60440035 32.443239,3.80773555 32.1924123,3.80773555 C32.1745244,3.80773555 32.1566521,3.80667874 32.1388889,3.80457063 C31.0546449,3.675879 29.9703991,3.61154088 28.8861533,3.61154088 C27.8019075,3.61154088 26.7176617,3.675879 25.6334159,3.80455523 L25.6334178,3.80457063 C25.384339,3.83413082 25.1584575,3.65617587 25.1288973,3.40709714 C25.1267892,3.38933388 25.1257324,3.37146159 25.1257324,3.35357368 L25.1257324,3.35357368 C25.1257324,3.05652947 25.3479589,2.80645644 25.6429451,2.77155061 Z" id="Rectangle-10" fill="#E1EBF7"></path>
                    <path d="M4.85893951,34.6857992 C4.85893951,34.6857992 8.68272341,32.1402722 8.68272341,27.6962699 C8.68272341,23.2522675 5.67126758,15.8159999 5.67126758,15.8159999" id="Path-5" stroke="#6E7585" stroke-width="2.592" stroke-linecap="round" stroke-linejoin="round" transform="translate(6.770831, 25.250900) rotate(-148.000000) translate(-6.770831, -25.250900) "></path>
                    <ellipse id="Oval" fill="#E1EBF7" cx="29.015823" cy="52.3673428" rx="2.33405435" ry="2.32170485"></ellipse>
                    <path d="M26.7614748,21.1078057 C26.4327218,21.8207926 27.4533006,22.3701428 28.7309669,22.2221663 C30.0086333,22.0741898 30.9556498,20.8874455 30.6436492,20.3571429 C30.3316486,19.8268403 27.0902279,20.3948189 26.7614748,21.1078057 Z" id="Path-10" fill="#7C8495" transform="translate(28.701401, 21.197693) rotate(19.000000) translate(-28.701401, -21.197693) "></path>
                </g>
                <g id="Additional-Elements" transform="translate(18.000000, 0.000000)">
                    <ellipse id="Oval-18" fill="#EF8FB0" opacity="0.508570429" cx="55.5519126" cy="22.141573" rx="1" ry="1"></ellipse>
                    <ellipse id="Oval-18" fill="#EF8FB0" opacity="0.615263526" cx="70.6338798" cy="33.2157303" rx="1" ry="1"></ellipse>
                    <ellipse id="Oval-11" fill="#EF8FB0" opacity="0.451142724" cx="10.0546448" cy="21.8898876" rx="1.75956284" ry="1.76179775"></ellipse>
                    <ellipse id="Oval-11" fill="#EF8FB0" opacity="0.493703358" cx="15.4590164" cy="12.7033708" rx="1.13114754" ry="1.13258427"></ellipse>
                    <g id="Group-23" opacity="0.424032183" transform="translate(34.383621, 4.188850) rotate(-153.000000) translate(-34.383621, -4.188850) translate(31.883621, 1.188850)" stroke="#EF8FB0" stroke-linecap="round" stroke-width="2.52">
                        <path d="M2.55795385e-12,2.59874898 L4.96169595,2.59874898" id="Line"></path>
                        <g id="Group-22" transform="translate(2.208476, 2.618086) rotate(-270.000000) translate(-2.208476, -2.618086) translate(-0.291524, 1.618086)">
                            <path d="M-8.52651283e-14,0.727649715 L4.96169595,0.727649715" id="Line"></path>
                        </g>
                    </g>
                    <g id="Group-23" opacity="0.409048507" transform="translate(130.071267, 79.948739) rotate(-285.000000) translate(-130.071267, -79.948739) translate(127.071267, 76.448739)" stroke="#EF8FB0" stroke-linecap="round" stroke-width="2.16">
                        <path d="M1.8189894e-12,2.76101287 L5.51502082,2.76101287" id="Line"></path>
                        <g id="Group-22" transform="translate(2.447846, 3.003512) rotate(-270.000000) translate(-2.447846, -3.003512) translate(-0.552154, 2.003512)">
                            <path d="M1.13686838e-12,0.690253216 L5.51502082,0.690253216" id="Line"></path>
                        </g>
                    </g>
                    <ellipse id="Oval-11" fill="#EF8FB0" opacity="0.253206623" cx="10.431694" cy="111.11236" rx="1.8852459" ry="1.88764045"></ellipse>
                    <path d="M1.13114754,104.191011 C1.75586308,104.191011 2.26229508,103.683936 2.26229508,103.058427 C2.26229508,102.432918 1.75586308,101.925843 1.13114754,101.925843 C0.506432004,101.925843 0,102.432918 0,103.058427 C0,103.683936 0.506432004,104.191011 1.13114754,104.191011 Z" id="Oval-11" fill="#EF8FB0" opacity="0.212278451"></path>
                    <ellipse id="Oval-11" fill="#EF8FB0" opacity="0.149778451" cx="98.4098361" cy="12.4516854" rx="1.8852459" ry="1.88764045"></ellipse>
                    <ellipse id="Oval-11" fill="#EF8FB0" opacity="0.304046175" cx="105.95082" cy="20.2539326" rx="1.13114754" ry="1.13258427"></ellipse>
                    <ellipse id="Oval-11" fill="#EF8FB0" opacity="0.157532649" cx="136.240437" cy="65.9348315" rx="1.75956284" ry="1.76179775"></ellipse>
                    <g id="Group-23" opacity="0.452250466" transform="translate(123.649212, 16.064948) rotate(-40.000000) translate(-123.649212, -16.064948) translate(121.649212, 13.564948)" stroke="#EF8FB0" stroke-linecap="round" stroke-width="2.16">
                        <path d="M1.8189894e-12,1.85714072 L3.62063773,1.85714072" id="Line"></path>
                        <g id="Group-22" transform="translate(1.777019, 2.048760) rotate(-270.000000) translate(-1.777019, -2.048760) translate(-0.222981, 1.548760)">
                            <path d="M1.70530257e-13,0.46428518 L3.62063773,0.46428518" id="Line"></path>
                        </g>
                    </g>
                </g>
            </g>
            <g id="Logo" transform="translate(47.000000, 75.000000)" fill="#EF8FB0">
                <path d="M11.1724331,9.56293001 C11.9944062,10.1180352 12.9545344,10.411739 13.9494498,10.411739 C16.6877035,10.411739 18.9155785,8.18386395 18.9155785,5.44511329 C18.9155785,2.7068596 16.6877035,0.478984584 13.9494498,0.478984584 C12.9053352,0.478984584 11.9059472,0.800021224 11.059623,1.40631333 C10.3777929,1.89482574 9.8271604,2.55180785 9.45891249,3.32259396 L8.67371451,5.0475447 L7.89597095,6.75609573 C7.67482342,7.21926315 7.33639315,7.62229831 6.91745525,7.92295956 C6.39962215,8.29418924 5.78686956,8.49048873 5.14628716,8.49048873 C3.46705681,8.49048873 2.10091172,7.12434365 2.10091172,5.44511329 C2.10091172,3.76588294 3.46705681,2.39973786 5.14628716,2.39973786 C5.75655495,2.39973786 6.34545343,2.57963765 6.84788074,2.91906183 L7.92330379,1.32779353 C7.10182768,0.772688384 6.14120257,0.478984584 5.14628716,0.478984584 C2.4075365,0.478984584 0.180158448,2.7068596 0.180158448,5.44511329 C0.180158448,8.18386395 2.4075365,10.411739 5.14628716,10.411739 C6.19089864,10.411739 7.1902867,10.0907023 8.03661084,9.48391326 C8.71844098,8.99540084 9.26907349,8.33841874 9.63682444,7.56812959 L10.4220224,5.84317885 L11.199766,4.13462781 C11.4209135,3.6714604 11.7593438,3.26792828 12.1777847,2.96776399 C12.6966117,2.59603735 13.3088674,2.39973786 13.9494498,2.39973786 C15.6286801,2.39973786 16.9948252,3.76588294 16.9948252,5.44511329 C16.9948252,7.12434365 15.6286801,8.49048873 13.9494498,8.49048873 C13.339182,8.49048873 12.7502835,8.31058894 12.2473592,7.97116475 L11.1724331,9.56293001 Z" id="Fill-1"></path>
                <path d="M6.32925251,4.5930741 C6.04399704,4.30781863 5.63897404,4.32272745 5.28414407,4.67706046 C4.92981106,4.32272745 4.52478805,4.30781863 4.23953259,4.5930741 C3.95427712,4.87832957 3.96620418,5.29975228 4.23953259,5.57357765 C4.51335795,5.84690605 4.78817725,6.12172535 5.00087644,6.33442454 C5.21357564,6.5476207 5.28414407,6.4894763 5.28414407,6.4894763 C5.28414407,6.4894763 5.35520945,6.5476207 5.56790865,6.33442454 C5.78060785,6.12172535 6.05542714,5.84690605 6.32925251,5.57357765 C6.60307788,5.29975228 6.61450798,4.87832957 6.32925251,4.5930741" id="Fill-3"></path>
                <path d="M13.0787248,4.5930741 C13.3639803,4.30781863 13.7690033,4.32272745 14.1233363,4.67706046 C14.4776693,4.32272745 14.8826923,4.30781863 15.1684448,4.5930741 C15.4532033,4.87832957 15.4417732,5.29975228 15.1684448,5.57357765 C14.8946194,5.84690605 14.6198001,6.12172535 14.4071009,6.33442454 C14.1944017,6.5476207 14.1233363,6.4894763 14.1233363,6.4894763 C14.1233363,6.4894763 14.0522709,6.5476207 13.8395717,6.33442454 C13.6273695,6.12172535 13.3520533,5.84690605 13.0787248,5.57357765 C12.8048995,5.29975228 12.7934694,4.87832957 13.0787248,4.5930741" id="Fill-5"></path>
            </g>
        </g>
    </g>
</svg>