<?xml version="1.0" encoding="UTF-8"?>
<svg width="169px" height="130px" viewBox="0 0 169 130" version="1.1" xmlns="http://www.w3.org/2000/svg" xmlns:xlink="http://www.w3.org/1999/xlink">
    <!-- Generator: Sketch 48.1 (47250) - http://www.bohemiancoding.com/sketch -->
    <title>Illustration/1</title>
    <desc>Created with Sketch.</desc>
    <defs></defs>
    <g id="Symbols" stroke="none" stroke-width="1" fill="none" fill-rule="evenodd">
        <g id="Illustration/1">
            <g id="Illustration" transform="translate(-1.000000, 0.000000)">
                <g id="Group-21" transform="translate(85.500000, 65.000000) rotate(-13.000000) translate(-85.500000, -65.000000) translate(9.989362, 16.250000)" fill="#F6F9FC" opacity="0.6">
                    <rect id="Rectangle-13" x="-1.80477855e-12" y="0.1338888" width="133.487705" height="32.4749151" rx="16.2374575"></rect>
                    <rect id="Rectangle-13" x="17.3593876" y="32.4749151" width="133.487705" height="32.4749151" rx="16.2374575"></rect>
                    <rect id="Rectangle-13" x="6.58459531" y="64.9498302" width="133.487705" height="32.4749151" rx="16.2374575"></rect>
                </g>
                <path d="M48.9432624,37.3148148 L48.9432515,43.263398 C48.9432515,43.4985686 48.9778161,43.7324623 49.0458372,43.9575808 C51.4939481,52.0597001 58.2999504,60.590124 69.4638442,69.5488527 C80.52327,78.4237485 93.2641635,85.6782185 107.686525,91.3122627 L107.686521,91.3122716 C108.365764,91.5776154 109.096536,91.6847079 109.823354,91.625418 C119.430308,90.8417335 126.643794,89.9224909 131.463813,88.8676905 C135.213748,88.0470645 138.31957,87.1391159 140.781279,86.1438447 L140.781282,86.1438525 C142.141517,85.5939081 143.031915,84.2735022 143.031915,82.8063014 L143.031915,80.6448166 L140.846851,82.3437252 L134.309181,84.3107641 L125.637811,86.3137356" id="Path-4" fill="#E1EBF7"></path>
                <path d="M99.602405,51.7592593 C99.602405,51.7592593 105.742319,45.3843938 104.515123,42.5715837 C103.287926,39.7587737 90.2943262,39.7222222 90.2943262,39.7222222" id="Path-5" stroke="#6E7585" stroke-width="3.6" stroke-linecap="round" stroke-linejoin="round"></path>
                <path d="M67.4354059,32.2030645 C62.8723376,32.5784206 58.4105476,33.3079244 54.050036,34.3915762 L54.0500339,34.3915675 C51.477317,35.0309258 49.9100202,37.6348271 50.5493784,40.207544 C50.638194,40.5649293 50.7678419,40.9109068 50.9357637,41.2386487 C55.2564917,49.6716457 61.8019068,57.6391551 70.5720091,65.1411769 C80.9070263,73.9818407 93.5266734,81.4876194 108.43095,87.6585132 L108.430949,87.6585164 C109.123385,87.9452093 109.873333,88.0657804 110.620737,88.0105745 C117.947329,87.469407 124.396057,86.6022129 129.966919,85.4089922 C131.507902,85.0789296 132.981887,84.7206586 134.388876,84.334179 L134.388875,84.334176 C136.945155,83.6320023 138.448205,80.9905035 137.746031,78.4342234 C137.402251,77.1826839 136.566301,76.1237056 135.42878,75.4987402 C120.909544,67.5217262 110.492296,60.6897292 104.177035,55.0027492 C97.338391,48.8444564 92.1596539,42.2047649 88.6408231,35.0836747 L88.6408266,35.0836729 C87.9106923,33.6060933 86.4735448,32.6064325 84.8342619,32.4358767 C78.8796635,31.8163429 73.0800448,31.7387388 67.4354059,32.2030645 Z" id="Path-3" fill="#F6F9FC"></path>
                <path d="M92.8675231,80.7512886 C93.4477285,81.071159 94.0178765,81.381119 94.5764729,81.6809643 M100.424451,84.6803719 C104.563026,86.7053009 107.222995,87.802121 107.222995,87.802121 C108.274626,88.253776 110.054222,88.5493275 111.19276,88.4545025 C111.19276,88.4545025 120.773106,87.8115104 129.520642,85.9115389 C138.268179,84.0115675 142.233031,81.8848701 142.233031,81.8848701 C143.273678,81.4072314 143.301408,80.57981 142.294141,80.0309972 C142.294141,80.0309972 125.412479,71.0191744 112.726064,62.1396727 M108.558391,59.1035153 C106.805893,57.7671385 105.208388,56.4584449 103.84151,55.2102481 C92.5225719,44.8740941 88.1952939,34.6244762 88.1952939,34.6244762 C87.6968989,33.5876522 86.3709548,32.6368719 85.2358699,32.5163499 C85.2358699,32.5163499 76.9681776,31.3793138 67.2576641,32.1893261 C64.5453153,32.4155794 61.9968125,32.7763228 59.7322423,33.1787722 M53.5155179,34.5179556 C51.2633094,35.0914562 49.936684,35.5331377 49.936684,35.5331377 C49.1160617,35.7839035 48.7201059,36.6331401 49.0720345,37.4249459 C49.0720345,37.4249459 54.582109,51.7427303 70.3807975,65.4470544 C75.4370889,69.8330549 81.0308787,73.7010262 86.3002096,76.9333007" id="Path-3" stroke="#7C8495" stroke-width="2.4" stroke-linecap="round" stroke-linejoin="round"></path>
                <path d="M65.4585067,54.1431132 C68.0231644,56.9537959 71.1659088,60.0283855 74.9384119,63.1274301 C88.130303,73.964335 99.1031696,79.1086708 99.1031696,79.1086708 C99.6169454,79.3621131 100.494047,79.5023157 101.063505,79.4216412 L127.589851,75.6636885 C128.158739,75.583095 128.205951,75.3040723 127.696737,75.0373451 C127.696737,75.0373451 110.353703,66.2286772 100.613195,56.7547015 C90.8726872,47.2807258 86.697512,39.3406984 86.697512,39.3406984 C86.4160735,38.843306 85.7219389,38.4769641 85.1488594,38.5223133 L56.7853581,40.7667854 L56.7853581,40.7667854 C56.2114993,40.8121963 55.9701859,41.2562164 56.2537551,41.7526555 C56.2537551,41.7526555 58.5102606,46.080002 63.6015834,52.040347" id="Path-3" stroke="#7C8495" stroke-width="2.4" fill="#FFFFFF" stroke-linecap="round" stroke-linejoin="round"></path>
                <path d="M65.2229105,35.8843484 C66.7879584,35.634298 68.3530062,35.5092728 69.9180541,35.5092728 C71.483102,35.5092728 73.0481498,35.634298 74.6131977,35.8843484 L74.6132006,35.8843302 C75.0156043,35.9486229 75.3116711,36.2957479 75.3116711,36.7032553 L75.3116711,36.7032553 C75.3116711,37.0429915 75.0362605,37.3184021 74.6965243,37.3184021 C74.672145,37.3184021 74.6477873,37.3169528 74.62358,37.3140619 C73.0550697,37.1267669 71.4865619,37.033109 69.9180541,37.033109 C68.3495463,37.033109 66.7810385,37.1267669 65.2125306,37.3140827 L65.2125281,37.3140619 C64.875189,37.3543479 64.5690633,37.1135388 64.5287772,36.7761996 C64.5258863,36.7519923 64.5244371,36.7276346 64.5244371,36.7032553 L64.5244371,36.7032553 C64.5244371,36.2957479 64.8205039,35.9486229 65.2229076,35.8843302 Z" id="Rectangle-2" fill="#E1EBF7" transform="translate(69.918054, 36.406499) rotate(-4.000000) translate(-69.918054, -36.406499) "></path>
                <path d="M125.084877,81.0764418 C123.416308,79.758607 120.573766,79.106434 118.735882,79.6197725 C116.897997,80.1331111 116.760739,81.5096007 118.429308,82.694248 C120.097876,83.8788954 122.940418,84.5310685 124.778303,84.1509174 C126.616187,83.7707662 126.753445,82.3942767 125.084877,81.0764418 Z" id="Oval-2" fill="#E1EBF7"></path>
                <path d="M48.9432624,36.712963 L48.9827231,39.3550472 C48.9913626,39.9335019 49.0485342,40.8670956 49.1579221,41.434264 C49.1579221,41.434264 49.0874103,48.2380586 65.5885629,65.0096904 C82.0897155,81.7813221 106.902363,91.4475265 106.902363,91.4475265 C107.960613,91.8852275 109.742631,92.162552 110.881167,92.0631267 C110.881167,92.0631267 118.197207,91.4832044 125.018255,90.4991684 M129.778711,89.7150304 C130.376127,89.6008919 130.950855,89.483302 131.495648,89.3624224 C138.978221,87.7021774 141.620291,86.2205089 141.620291,86.2205089 C142.39991,85.8615807 143.031915,84.8689326 143.031915,84.0015514 L143.031915,81.0481069" id="Path-4" stroke="#7C8495" stroke-width="2.4" stroke-linecap="round" stroke-linejoin="round"></path>
                <path d="M63.9255319,62.5925926 C63.9255319,62.5925926 49.6225492,62.142539 46.6444251,60.0832478 C43.6663009,58.0239565 51.1871527,51.7592593 51.1871527,51.7592593" id="Path-6" stroke="#6E7585" stroke-width="3.6" stroke-linecap="round" stroke-linejoin="round"></path>
                <path d="M80.8379519,52.1229757 L81.5205833,52.0134917 C82.0965731,51.9211233 82.6383845,52.313176 82.7307528,52.8891659 C82.8195142,53.4426637 82.4604302,53.9690945 81.9127129,54.0884435 C81.9127129,54.0884435 81.9127129,54.0884435 81.9127129,54.0884435 C81.5858897,54.1596591 81.2605911,54.1851756 80.936817,54.1649928 L80.9368171,54.1649913 C80.3698973,54.1296519 79.9389662,53.6414243 79.9743056,53.0745045 C80.0042343,52.594384 80.3629682,52.1991462 80.8379519,52.1229757 Z" id="Path-7" fill="#7C8495" transform="translate(81.057272, 53.007314) rotate(8.000000) translate(-81.057272, -53.007314) "></path>
                <path d="M69.9184397,48.1481481 C69.9184397,48.1481481 69.9338318,46.6498726 71.2783563,46.3767763 C72.6228808,46.10368 73.5141844,47.5566153 73.5141844,47.5566153" id="Path-8" stroke="#7C8495" stroke-width="2.4" stroke-linecap="round" stroke-linejoin="round" transform="translate(71.716312, 47.245370) rotate(7.000000) translate(-71.716312, -47.245370) "></path>
                <path d="M79.5070922,46.9444444 C79.5070922,46.9444444 79.5224843,45.4461689 80.8670088,45.1730726 C82.2115332,44.8999763 83.1028369,46.3529116 83.1028369,46.3529116" id="Path-8" stroke="#7C8495" stroke-width="2.4" stroke-linecap="round" stroke-linejoin="round" transform="translate(81.304965, 46.041667) rotate(-2.000000) translate(-81.304965, -46.041667) "></path>
                <ellipse id="Oval-11" fill="#EF8FB0" opacity="0.400000006" cx="104.078014" cy="18.6574074" rx="2.39716312" ry="2.40740741"></ellipse>
                <ellipse id="Oval-11" fill="#EF8FB0" opacity="0.6" cx="107.673759" cy="27.6851852" rx="1.19858156" ry="1.2037037"></ellipse>
                <ellipse id="Oval-11" fill="#EF8FB0" opacity="0.659165112" cx="19.2783688" cy="50.8564815" rx="2.09751773" ry="2.10648148"></ellipse>
                <ellipse id="Oval-11" fill="#EF8FB0" opacity="0.5" cx="56.4343972" cy="77.337963" rx="2.09751773" ry="2.10648148"></ellipse>
                <ellipse id="Oval-11" fill="#EF8FB0" opacity="0.35389459" cx="56.1347518" cy="84.8611111" rx="1.19858156" ry="1.2037037"></ellipse>
                <ellipse id="Oval-11" fill="#EF8FB0" opacity="0.667910448" cx="69.3191489" cy="87.2685185" rx="1.19858156" ry="1.2037037"></ellipse>
                <g id="Group-23" opacity="0.7" transform="translate(25.519078, 29.994594) rotate(-30.000000) translate(-25.519078, -29.994594) translate(22.519078, 26.494594)" stroke="#EF8FB0" stroke-linecap="round" stroke-width="4.2">
                    <path d="M1.37134748e-12,3.56106758 L5.91467663,3.56106758" id="Line"></path>
                    <g id="Group-22" transform="translate(2.780656, 3.602188) rotate(-270.000000) translate(-2.780656, -3.602188) translate(-0.219344, 2.602188)" fill="#396FDD">
                        <path d="M5.59552404e-14,0.828580405 L5.91467663,0.828580405" id="Line"></path>
                    </g>
                </g>
                <g id="Group-23" opacity="0.770230877" transform="translate(57.725387, 111.907211) rotate(-330.000000) translate(-57.725387, -111.907211) translate(55.225387, 108.907211)" stroke="#EF8FB0" stroke-linecap="round" stroke-width="3.6">
                    <path d="M9.66338121e-13,2.31172763 L4.60378099,2.31172763" id="Line" fill="#396FDD"></path>
                    <g id="Group-22" transform="translate(1.879924, 2.510244) rotate(-270.000000) translate(-1.879924, -2.510244) translate(-0.620076, 1.510244)">
                        <path d="M3.41060513e-13,0.577931908 L4.60378099,0.577931908" id="Line"></path>
                    </g>
                </g>
                <g id="Group-23" opacity="0.5" transform="translate(161.662181, 71.708741) rotate(-296.000000) translate(-161.662181, -71.708741) translate(159.162181, 68.708741)" stroke="#EF8FB0" stroke-linecap="round" stroke-width="3.6">
                    <path d="M1.47792889e-12,2.8223295 L4.60378099,2.8223295" id="Line"></path>
                    <g id="Group-22" transform="translate(1.860597, 3.017069) rotate(-270.000000) translate(-1.860597, -3.017069) translate(-0.639403, 2.017069)">
                        <path d="M-5.68434189e-14,0.555119413 L4.60378099,0.555119413" id="Line"></path>
                    </g>
                </g>
            </g>
        </g>
    </g>
</svg>