<?xml version="1.0" encoding="UTF-8"?>
<svg width="57px" height="18px" viewBox="0 0 57 18" version="1.1" xmlns="http://www.w3.org/2000/svg" xmlns:xlink="http://www.w3.org/1999/xlink">
    <!-- Generator: Sketch 48.1 (47250) - http://www.bohemiancoding.com/sketch -->
    <title>logo-soonly</title>
    <desc>Created with Sketch.</desc>
    <defs></defs>
    <g id="sidebar" stroke="none" stroke-width="1" fill="none" fill-rule="evenodd" transform="translate(-31.000000, -19.000000)">
        <g id="logo-soonly">
            <g transform="translate(31.000000, 19.000000)">
                <path d="M23.1724331,13.56293 C23.9944062,14.1180352 24.9545344,14.411739 25.9494498,14.411739 C28.6877035,14.411739 30.9155785,12.183864 30.9155785,9.44511329 C30.9155785,6.7068596 28.6877035,4.47898458 25.9494498,4.47898458 C24.9053352,4.47898458 23.9059472,4.80002122 23.059623,5.40631333 C22.3777929,5.89482574 21.8271604,6.55180785 21.4589125,7.32259396 L20.6737145,9.0475447 L19.895971,10.7560957 C19.6748234,11.2192631 19.3363932,11.6222983 18.9174552,11.9229596 C18.3996222,12.2941892 17.7868696,12.4904887 17.1462872,12.4904887 C15.4670568,12.4904887 14.1009117,11.1243436 14.1009117,9.44511329 C14.1009117,7.76588294 15.4670568,6.39973786 17.1462872,6.39973786 C17.756555,6.39973786 18.3454534,6.57963765 18.8478807,6.91906183 L19.9233038,5.32779353 C19.1018277,4.77268838 18.1412026,4.47898458 17.1462872,4.47898458 C14.4075365,4.47898458 12.1801584,6.7068596 12.1801584,9.44511329 C12.1801584,12.183864 14.4075365,14.411739 17.1462872,14.411739 C18.1908986,14.411739 19.1902867,14.0907023 20.0366108,13.4839133 C20.718441,12.9954008 21.2690735,12.3384187 21.6368244,11.5681296 L22.4220224,9.84317885 L23.199766,8.13462781 C23.4209135,7.6714604 23.7593438,7.26792828 24.1777847,6.96776399 C24.6966117,6.59603735 25.3088674,6.39973786 25.9494498,6.39973786 C27.6286801,6.39973786 28.9948252,7.76588294 28.9948252,9.44511329 C28.9948252,11.1243436 27.6286801,12.4904887 25.9494498,12.4904887 C25.339182,12.4904887 24.7502835,12.3105889 24.2473592,11.9711648 L23.1724331,13.56293 Z" id="Fill-1" fill="#FFFFFF"></path>
                <path d="M18.3292525,8.5930741 C18.043997,8.30781863 17.638974,8.32272745 17.2841441,8.67706046 C16.9298111,8.32272745 16.5247881,8.30781863 16.2395326,8.5930741 C15.9542771,8.87832957 15.9662042,9.29975228 16.2395326,9.57357765 C16.513358,9.84690605 16.7881772,10.1217253 17.0008764,10.3344245 C17.2135756,10.5476207 17.2841441,10.4894763 17.2841441,10.4894763 C17.2841441,10.4894763 17.3552095,10.5476207 17.5679087,10.3344245 C17.7806079,10.1217253 18.0554271,9.84690605 18.3292525,9.57357765 C18.6030779,9.29975228 18.614508,8.87832957 18.3292525,8.5930741" id="Fill-3" fill="#FFFFFF"></path>
                <path d="M25.0787248,8.5930741 C25.3639803,8.30781863 25.7690033,8.32272745 26.1233363,8.67706046 C26.4776693,8.32272745 26.8826923,8.30781863 27.1684448,8.5930741 C27.4532033,8.87832957 27.4417732,9.29975228 27.1684448,9.57357765 C26.8946194,9.84690605 26.6198001,10.1217253 26.4071009,10.3344245 C26.1944017,10.5476207 26.1233363,10.4894763 26.1233363,10.4894763 C26.1233363,10.4894763 26.0522709,10.5476207 25.8395717,10.3344245 C25.6273695,10.1217253 25.3520533,9.84690605 25.0787248,9.57357765 C24.8048995,9.29975228 24.7934694,8.87832957 25.0787248,8.5930741" id="Fill-5" fill="#FFFFFF"></path>
                <path d="M5.09111284,12.4615159 C5.9612911,12.4615159 6.63566683,12.3094459 7.11274914,12.0058029 C7.58983145,11.7026569 7.82837261,11.2648344 7.82837261,10.6928326 C7.82837261,10.2763795 7.69717497,9.93645838 7.43428274,9.67456007 C7.17139051,9.41266176 6.82749367,9.22431364 6.40209528,9.11001266 C5.97719384,8.99571169 5.51998996,8.87296239 5.03197451,8.74176475 C4.5434621,8.61007016 4.04401655,8.47589076 3.53264394,8.33823263 C3.02077438,8.2005745 2.55661304,8.01272334 2.13916602,7.77418219 C1.72171899,7.53564103 1.38179785,7.17782929 1.11940257,6.70074698 C0.857007301,6.22366467 0.725809665,5.63923883 0.725809665,4.94746948 C0.725809665,3.89788839 1.14027492,3.00932258 1.96920544,2.28177205 C2.79813596,1.55422152 3.89840705,1.19044626 5.2700187,1.19044626 C6.7131927,1.19044626 7.8373179,1.5810574 8.64239431,2.36227969 C9.44747071,3.14350198 9.86193597,4.15432013 9.88579009,5.39473415 L7.75681026,5.39473415 C7.74488321,4.73874596 7.52423264,4.1990466 7.09485855,3.77563604 C6.66548447,3.35222549 6.05720452,3.14052021 5.2700187,3.14052021 C4.51861406,3.14052021 3.93120646,3.29159628 3.50779591,3.59374841 C3.08438535,3.8963975 2.87268008,4.32577159 2.87268008,4.88286458 C2.87268008,5.25011857 3.00487163,5.55574943 3.26875779,5.79826627 C3.53264394,6.04177703 3.8775347,6.22018594 4.3029331,6.33448691 C4.72833149,6.44878788 5.19149891,6.57302807 5.69193837,6.70770443 C6.19237784,6.84238079 6.69828388,6.97805107 7.20965648,7.1157092 C7.72102909,7.25336733 8.18817219,7.45066074 8.61058882,7.70908033 C9.03250849,7.96749991 9.37491444,8.34022047 9.63631579,8.82624808 C9.89821411,9.31277265 10.0289148,9.90415593 10.0289148,10.6008949 C10.0289148,11.7578195 9.56972306,12.6821665 8.6513396,13.3739358 C7.73295615,14.0657052 6.51043272,14.4115899 4.98376931,14.4115899 C3.42132474,14.4115899 2.24650954,14.0001064 1.45932372,13.1771394 C0.672137904,12.3541724 0.260654409,11.3582631 0.224873235,10.1894114 L2.37174365,10.1894114 C2.41945188,10.8931078 2.67588362,11.447716 3.14103888,11.853236 C3.60619413,12.2587559 4.25621879,12.4615159 5.09111284,12.4615159" id="Fill-7" fill="#FFFFFF"></path>
                <path d="M35.1545542,4.90999864 L35.1545542,6.14444912 C35.3692413,5.73892916 35.7240712,5.39602624 36.2190441,5.11574038 C36.714017,4.83595149 37.3133517,4.6953116 38.0170481,4.6953116 C39.1143374,4.6953116 39.9641403,5.02926922 40.5664567,5.69718445 C41.1687731,6.36509969 41.4699314,7.2536655 41.4699314,8.36288188 L41.4699314,14.1952132 L39.3409515,14.1952132 L39.3409515,8.63124068 C39.3409515,7.9752525 39.1888815,7.45940725 38.8847416,7.08370493 C38.5806016,6.70800261 38.1184281,6.52015145 37.4982211,6.52015145 C36.8183788,6.52015145 36.284643,6.72291143 35.8970136,7.1284314 C35.5093842,7.53395136 35.3155695,8.09452308 35.3155695,8.81014655 L35.3155695,14.1952132 L33.1865897,14.1952132 L33.1865897,4.90999864 L35.1545542,4.90999864 Z" id="Fill-10" fill="#FFFFFF"></path>
                <polygon id="Fill-12" fill="#FFFFFF" points="43.974862 14.1954616 46.1038418 14.1954616 46.1038418 0.777521575 43.974862 0.777521575"></polygon>
                <polygon id="Fill-14" fill="#FFFFFF" points="49.6457804 17.7819776 51.1853648 13.9305319 47.4810194 4.80185998 49.7531239 4.80185998 52.2170553 11.3488208 54.8340506 4.80185998 57.0524833 4.80185998 51.7568697 17.8083166"></polygon>
            </g>
        </g>
    </g>
</svg>
