<?xml version="1.0" encoding="utf-8"?>
<!-- Generator: Adobe Illustrator 22.0.1, SVG Export Plug-In . SVG Version: 6.00 Build 0)  -->
<svg version="1.1" id="Calque_1" xmlns="http://www.w3.org/2000/svg" xmlns:xlink="http://www.w3.org/1999/xlink" x="0px" y="0px"
	 viewBox="0 0 34 34" style="enable-background:new 0 0 34 34;" xml:space="preserve">
<style type="text/css">
	.st0{fill:#423F8F;stroke:#423F8F;stroke-miterlimit:10;}
	.st1{fill:#E6D3FF;}
	.st2{fill:#FBDC00;}
</style>
<path class="st0" d="M24.4,8.9c-1.7,0-3.4,0.5-4.8,1.6c-1.1,0.8-2.1,1.9-2.7,3.2l-1.3,2.9l-1.3,2.9c-0.4,0.8-0.9,1.4-1.6,2
	c-0.9,0.6-1.9,0.9-3,0.9c-2.8,0-5.1-2.3-5.1-5.1s2.3-5.1,5.1-5.1c1,0,2,0.3,2.8,0.9c0.7,0.5,1.7,0.3,2.2-0.4
	c0.5-0.7,0.3-1.7-0.4-2.2c-1.4-0.9-3-1.4-4.6-1.4c-4.6,0-8.3,3.7-8.3,8.3s3.7,8.3,8.3,8.3c1.7,0,3.4-0.5,4.8-1.6
	c1.1-0.8,2.1-1.9,2.7-3.2l1.3-2.9l1.3-2.9c0.4-0.8,0.9-1.4,1.6-2c0.9-0.6,1.9-0.9,3-0.9c2.8,0,5.1,2.3,5.1,5.1s-2.3,5.1-5.1,5.1
	c-1,0-2-0.3-2.8-0.9c-0.7-0.5-1.7-0.3-2.2,0.4s-0.3,1.7,0.4,2.2c1.4,0.9,3,1.4,4.6,1.4c4.6,0,8.3-3.7,8.3-8.3S29,8.9,24.4,8.9z"/>
<path class="st1" d="M11.6,15.8c-0.5-0.5-1.2-0.5-1.7,0.1c-0.6-0.6-1.3-0.6-1.7-0.1c-0.5,0.5-0.5,1.2,0,1.6c0.5,0.5,0.9,0.9,1.3,1.3
	c0.4,0.4,0.5,0.3,0.5,0.3s0.1,0.1,0.5-0.3c0.4-0.4,0.8-0.8,1.3-1.3C12.1,16.9,12.1,16.2,11.6,15.8z"/>
<path class="st2" d="M22.9,15.8c0.5-0.5,1.2-0.5,1.7,0.1c0.6-0.6,1.3-0.6,1.7-0.1c0.5,0.5,0.5,1.2,0,1.6c-0.5,0.5-0.9,0.9-1.3,1.3
	c-0.4,0.4-0.5,0.3-0.5,0.3s-0.1,0.1-0.5-0.3c-0.4-0.4-0.8-0.8-1.3-1.3C22.5,16.9,22.5,16.2,22.9,15.8z"/>
</svg>
