<?xml version="1.0" encoding="utf-8"?>
<!-- Generator: Adobe Illustrator 22.0.1, SVG Export Plug-In . SVG Version: 6.00 Build 0)  -->
<svg version="1.1" id="Calque_1" xmlns="http://www.w3.org/2000/svg" xmlns:xlink="http://www.w3.org/1999/xlink" x="0px" y="0px"
	 viewBox="0 0 24 24" style="enable-background:new 0 0 24 24;" xml:space="preserve">
<style type="text/css">
	.st0{fill:#FFFFFF;}
</style>
<title>icon/photo_library</title>
<desc>Created with Sketch.</desc>
<g id="Symbols">
	<g id="icon_x2F_photo_x5F_library">
		<g id="Mask">
			<path id="path-1_1_" class="st0" d="M22,16V4c0-1.1-0.9-2-2-2H8C6.9,2,6,2.9,6,4v12c0,1.1,0.9,2,2,2h12C21.1,18,22,17.1,22,16
				L22,16z M11,12l2,2.7l3-3.7l4,5H8L11,12L11,12z M2,6v14c0,1.1,0.9,2,2,2h14v-2H4V6H2L2,6z"/>
		</g>
	</g>
</g>
</svg>
