<?xml version="1.0" encoding="utf-8"?>
<!-- Generator: Adobe Illustrator 22.0.1, SVG Export Plug-In . SVG Version: 6.00 Build 0)  -->
<svg version="1.1" id="Calque_1" xmlns="http://www.w3.org/2000/svg" xmlns:xlink="http://www.w3.org/1999/xlink" x="0px" y="0px"
	 viewBox="0 0 24 24" style="enable-background:new 0 0 24 24;" xml:space="preserve">
<style type="text/css">
	.st0{fill:#9B76DA;}
</style>
<g>
	<path class="st0" d="M9,11.2V7.5C9,6.1,10.1,5,11.5,5S14,6.1,14,7.5v3.7c1.2-0.8,2-2.2,2-3.7C16,5,14,3,11.5,3S7,5,7,7.5
		C7,9.1,7.8,10.4,9,11.2z M18.8,15.9l-4.5-2.3c-0.2-0.1-0.4-0.1-0.5-0.1H13v-6C13,6.7,12.3,6,11.5,6S10,6.7,10,7.5v10.7l-3.4-0.7
		c-0.1,0-0.2,0-0.2,0c-0.3,0-0.6,0.1-0.8,0.3l-0.8,0.8l4.9,4.9c0.3,0.3,0.6,0.4,1.1,0.4h6.8c0.8,0,1.3-0.5,1.4-1.3l0.8-5.3
		c0-0.1,0-0.1,0-0.2C19.8,16.6,19.4,16.1,18.8,15.9z"/>
</g>
</svg>
